<mxfile host="65bd71144e">
    <diagram id="5_3R-zzHEf52SLN2XJUo" name="第 1 页">
        <mxGraphModel dx="1315" dy="738" grid="1" gridSize="10" guides="1" tooltips="1" connect="1" arrows="1" fold="1" page="1" pageScale="1" pageWidth="1920" pageHeight="1200" math="0" shadow="0">
            <root>
                <mxCell id="0"/>
                <mxCell id="1" parent="0"/>
                <mxCell id="ZYxxZE-ww87QtJyCRkxr-116" value="" style="rounded=0;whiteSpace=wrap;html=1;fillColor=#f5f5f5;strokeColor=#666666;fontColor=#333333;" parent="1" vertex="1">
                    <mxGeometry x="350" y="210" width="720" height="260" as="geometry"/>
                </mxCell>
                <mxCell id="ZYxxZE-ww87QtJyCRkxr-109" style="edgeStyle=orthogonalEdgeStyle;rounded=0;orthogonalLoop=1;jettySize=auto;html=1;entryX=0;entryY=0.5;entryDx=0;entryDy=0;" parent="1" source="ZYxxZE-ww87QtJyCRkxr-99" target="ZYxxZE-ww87QtJyCRkxr-100" edge="1">
                    <mxGeometry relative="1" as="geometry"/>
                </mxCell>
                <mxCell id="ZYxxZE-ww87QtJyCRkxr-112" value="1. route" style="edgeLabel;html=1;align=center;verticalAlign=middle;resizable=0;points=[];rounded=0;" parent="ZYxxZE-ww87QtJyCRkxr-109" vertex="1" connectable="0">
                    <mxGeometry x="-0.2417" y="1" relative="1" as="geometry">
                        <mxPoint as="offset"/>
                    </mxGeometry>
                </mxCell>
                <mxCell id="ZYxxZE-ww87QtJyCRkxr-99" value="API Server&amp;nbsp;" style="rounded=0;whiteSpace=wrap;html=1;fillColor=#dae8fc;strokeColor=#6c8ebf;" parent="1" vertex="1">
                    <mxGeometry x="496.5" y="318.75" width="106" height="35" as="geometry"/>
                </mxCell>
                <mxCell id="ZYxxZE-ww87QtJyCRkxr-110" style="edgeStyle=orthogonalEdgeStyle;rounded=0;orthogonalLoop=1;jettySize=auto;html=1;entryX=0;entryY=0.5;entryDx=0;entryDy=0;" parent="1" source="ZYxxZE-ww87QtJyCRkxr-100" target="ZYxxZE-ww87QtJyCRkxr-101" edge="1">
                    <mxGeometry relative="1" as="geometry">
                        <mxPoint x="860" y="321.75" as="targetPoint"/>
                    </mxGeometry>
                </mxCell>
                <mxCell id="ZYxxZE-ww87QtJyCRkxr-115" value="2. distribute" style="edgeLabel;html=1;align=center;verticalAlign=middle;resizable=0;points=[];rounded=0;" parent="ZYxxZE-ww87QtJyCRkxr-110" vertex="1" connectable="0">
                    <mxGeometry x="-0.1043" y="1" relative="1" as="geometry">
                        <mxPoint as="offset"/>
                    </mxGeometry>
                </mxCell>
                <mxCell id="ZYxxZE-ww87QtJyCRkxr-100" value="Controller" style="rounded=0;whiteSpace=wrap;html=1;fillColor=#dae8fc;strokeColor=#6c8ebf;" parent="1" vertex="1">
                    <mxGeometry x="679" y="318.75" width="116" height="35" as="geometry"/>
                </mxCell>
                <mxCell id="ZYxxZE-ww87QtJyCRkxr-101" value="" style="rounded=0;whiteSpace=wrap;html=1;" parent="1" vertex="1">
                    <mxGeometry x="910" y="240" width="120" height="192.5" as="geometry"/>
                </mxCell>
                <mxCell id="ZYxxZE-ww87QtJyCRkxr-102" value="worker2" style="rounded=0;whiteSpace=wrap;html=1;fillColor=#bac8d3;strokeColor=#23445d;" parent="1" vertex="1">
                    <mxGeometry x="925" y="300" width="90" height="30" as="geometry"/>
                </mxCell>
                <mxCell id="ZYxxZE-ww87QtJyCRkxr-103" value="worker1" style="rounded=0;whiteSpace=wrap;html=1;fillColor=#bac8d3;strokeColor=#23445d;" parent="1" vertex="1">
                    <mxGeometry x="925" y="262.5" width="90" height="30" as="geometry"/>
                </mxCell>
                <mxCell id="ZYxxZE-ww87QtJyCRkxr-104" value="worker3" style="rounded=0;whiteSpace=wrap;html=1;fillColor=#bac8d3;strokeColor=#23445d;" parent="1" vertex="1">
                    <mxGeometry x="925" y="340" width="90" height="30" as="geometry"/>
                </mxCell>
                <mxCell id="ZYxxZE-ww87QtJyCRkxr-105" value="......" style="rounded=0;whiteSpace=wrap;html=1;fillColor=#bac8d3;strokeColor=#23445d;" parent="1" vertex="1">
                    <mxGeometry x="925" y="382.5" width="90" height="30" as="geometry"/>
                </mxCell>
                <mxCell id="ZYxxZE-ww87QtJyCRkxr-108" style="edgeStyle=orthogonalEdgeStyle;rounded=0;orthogonalLoop=1;jettySize=auto;html=1;entryX=0;entryY=0.5;entryDx=0;entryDy=0;fontSize=14;" parent="1" source="ZYxxZE-ww87QtJyCRkxr-107" target="ZYxxZE-ww87QtJyCRkxr-99" edge="1">
                    <mxGeometry relative="1" as="geometry">
                        <mxPoint x="420" y="336.75" as="sourcePoint"/>
                        <mxPoint x="493.25" y="336.25" as="targetPoint"/>
                    </mxGeometry>
                </mxCell>
                <mxCell id="ZYxxZE-ww87QtJyCRkxr-111" value="0. call llm" style="edgeLabel;html=1;align=center;verticalAlign=middle;resizable=0;points=[];rounded=0;" parent="ZYxxZE-ww87QtJyCRkxr-108" vertex="1" connectable="0">
                    <mxGeometry x="-0.1458" y="-1" relative="1" as="geometry">
                        <mxPoint x="1" y="1" as="offset"/>
                    </mxGeometry>
                </mxCell>
                <mxCell id="ZYxxZE-ww87QtJyCRkxr-107" value="User" style="outlineConnect=0;fontColor=#232F3E;gradientColor=none;strokeColor=#232F3E;fillColor=#ffffff;dashed=0;verticalLabelPosition=bottom;verticalAlign=top;align=center;html=1;fontSize=12;fontStyle=0;aspect=fixed;shape=mxgraph.aws4.resourceIcon;resIcon=mxgraph.aws4.user;rounded=0;" parent="1" vertex="1">
                    <mxGeometry x="370" y="315.75" width="41" height="41" as="geometry"/>
                </mxCell>
                <mxCell id="ZYxxZE-ww87QtJyCRkxr-117" value="Local LLM Service Workflow" style="text;html=1;strokeColor=none;fillColor=none;align=center;verticalAlign=middle;whiteSpace=wrap;rounded=0;fontStyle=1;fontSize=14;" parent="1" vertex="1">
                    <mxGeometry x="562.5" y="220" width="260" height="30" as="geometry"/>
                </mxCell>
            </root>
        </mxGraphModel>
    </diagram>
</mxfile>